<svg xmlns="http://www.w3.org/2000/svg" width="224" height="224" viewBox="0 0 224 224">
	<g transform="translate(-729 -252)">
		<rect width="224" height="224" transform="translate(729 252)" fill="none" />
		<path d="M7898.294,4374.879s5.484-24,35.938-24,35.171,24,35.171,24" transform="translate(-7117.793 -3995.379)"
			fill="none" stroke="#9c9c9c" stroke-linecap="round" stroke-width="6" />
		<g transform="translate(754 303)">
			<path
				d="M103.876,6.073c6.265,0,11.317,5.668,11.317,12.753V82.187c0,7.085-5.052,12.753-11.317,12.753H97.005a6.085,6.085,0,0,0-6.063,6.073v11.741l-19.6-16.4A5.329,5.329,0,0,0,67.5,94.94H17.38c-6.265,0-11.317-5.87-11.317-12.753V18.826c0-7.085,5.052-12.753,11.317-12.753h86.5m0-6.073H17.38C7.68,0,0,8.5,0,18.826V82.187c0,10.324,7.68,18.826,17.38,18.826H67.5l23.645,19.636a3.036,3.036,0,0,0,2.223.81,4.75,4.75,0,0,0,1.617-.4,4.012,4.012,0,0,0,2.021-3.644l.2-16.6h6.871c9.5,0,17.38-8.5,17.38-18.826V18.826C121.256,8.5,113.577,0,103.876,0Z"
				fill="#9c9c9c" />
			<g transform="translate(0.101)">
				<path d="M14.383,13.5a5.883,5.883,0,1,0,5.883,5.883A5.887,5.887,0,0,0,14.383,13.5Z"
					transform="translate(9.398 13.822)" fill="#9c9c9c" />
				<path d="M51.583,13.5a5.883,5.883,0,1,0,5.883,5.883A5.887,5.887,0,0,0,51.583,13.5Z"
					transform="translate(46.546 13.822)" fill="#9c9c9c" />
			</g>
		</g>
		<g transform="translate(-2)">
			<g transform="translate(-6415.733 -4070.518)">
				<path d="M1937.136,185.383a34.3,34.3,0,1,0,34.3,34.3,34.3,34.3,0,0,0-34.3-34.3"
					transform="translate(5375 4241)" fill="#ff7900" />
				<path
					d="M2029.984,319.53c-1.113,1.475-6.5,8.6-9.725,12.425-2.6,3.084-6.563,8.021-9.258,7.989-2.436-.03-3.362-2.454-4.922-3.209a3.694,3.694,0,0,0-4.16.615c-1.406,1.106-1.934,2.519-4.922,2.519-2.836,0-5.859-5.346-8.2-10.876-3.453-8.149-7.464-17.9-8.37-20.235-.708-1.823-1.459-3.5-.644-4.014s1.74.465,2,.832c1.151,1.6,5.854,7.048,8.593,9.961,2.854,3.036,4.159,4.985,7.044,3.685,2.508-1.13,3.1-1.594,7.3-3.5,4.619-2.1,5.965,3.88,7.313,6.228,1.372,2.39,2.6,2.188,4.007,1.758,1.948-.6,10.6-5.647,11.133-6.022.7-.491,2.174-1.534,3.163-.97,1.081.617.1,2.211-.352,2.813"
					transform="translate(5309.462 4138.989)" fill="#fff" />
			</g>
		</g>
	</g>
</svg>